<svg width="76" height="76" viewBox="0 0 76 76" fill="none" xmlns="http://www.w3.org/2000/svg">
<g clip-path="url(#clip0_85_17)">
<path fill-rule="evenodd" clip-rule="evenodd" d="M37.65 0C58.4441 0 75.3 17.2811 75.3 38.6023C75.3 55.654 64.5246 70.1192 49.5738 75.2283C47.6649 75.6086 46.9872 74.4031 46.9872 73.3752C46.9872 72.1027 47.0324 67.9462 47.0324 62.7806C47.0324 59.1813 45.8276 56.8321 44.476 55.6349C52.8606 54.6786 61.6707 51.414 61.6707 36.5874C61.6707 32.3706 60.2099 28.9296 57.7927 26.2263C58.1843 25.2512 59.4757 21.3248 57.4238 16.0086C57.4238 16.0086 54.2687 14.9742 47.0813 19.9666C44.0731 19.112 40.8503 18.682 37.65 18.6669C34.4497 18.682 31.2307 19.112 28.2262 19.9666C21.0313 14.9742 17.8687 16.0086 17.8687 16.0086C15.8243 21.3248 17.1157 25.2512 17.5035 26.2263C15.0977 28.9296 13.6255 32.3706 13.6255 36.5874C13.6255 51.3763 22.4168 54.691 30.7789 55.6661C29.7021 56.63 28.727 58.3303 28.3881 60.8264C26.2421 61.8129 20.7903 63.5201 17.4319 57.6203C17.4319 57.6203 15.4403 53.9113 11.6602 53.6402C11.6602 53.6402 7.98933 53.5915 11.4042 55.986C11.4042 55.986 13.8703 57.172 15.5833 61.6335C15.5833 61.6335 17.7934 68.5233 28.2676 66.189C28.2865 69.4156 28.3203 72.4566 28.3203 73.3752C28.3203 74.3955 27.6276 75.5897 25.7488 75.232C10.7867 70.1304 0 55.6577 0 38.6023C0 17.2811 16.8597 0 37.65 0Z" fill="white"/>
</g>
<defs>
<clipPath id="clip0_85_17">
<rect width="75.3" height="75.3" fill="white"/>
</clipPath>
</defs>
</svg>
