<?xml version="1.0" standalone="no"?>
<!DOCTYPE svg PUBLIC "-//W3C//DTD SVG 20010904//EN"
 "http://www.w3.org/TR/2001/REC-SVG-20010904/DTD/svg10.dtd">
<svg version="1.0" xmlns="http://www.w3.org/2000/svg"
 width="1026.000000pt" height="557.000000pt" viewBox="0 0 1026.000000 557.000000"
 preserveAspectRatio="xMidYMid meet">

<g transform="translate(0.000000,557.000000) scale(0.100000,-0.100000)"
fill="#000000" stroke="none">
<path d="M7264 4095 c-12 -30 7 -35 147 -35 l139 0 0 25 0 25 -140 0 c-114 0
-142 -3 -146 -15z"/>
<path d="M7112 3879 c1 -13 8 -23 13 -21 15 3 12 35 -3 40 -9 3 -13 -3 -10
-19z"/>
<path d="M7377 3844 c-15 -15 7 -24 59 -24 40 0 55 4 52 13 -5 13 -99 23 -111
11z"/>
<path d="M7162 3808 c7 -19 38 -22 38 -4 0 10 -9 16 -21 16 -12 0 -19 -5 -17
-12z"/>
<path d="M7217 3563 c-18 -18 0 -23 83 -23 73 0 90 3 90 15 0 12 -16 15 -83
15 -46 0 -87 -3 -90 -7z"/>
<path d="M5872 3553 c-17 -3 -22 -10 -20 -26 3 -20 10 -22 108 -29 128 -8 142
-5 138 30 l-3 27 -100 1 c-55 1 -110 0 -123 -3z"/>
<path d="M7680 3445 l-10 -26 -807 2 -808 1 -3 -36 -3 -36 805 -2 c527 -2 807
-6 809 -13 1 -7 -305 -11 -900 -13 l-903 -2 0 25 c0 52 -56 40 -62 -13 -3 -27
-3 -27 -99 -30 -82 -2 -98 0 -103 14 -10 25 2 34 43 34 25 0 44 7 56 20 11 12
31 20 52 20 22 0 33 5 33 14 0 21 -20 30 -33 17 -7 -7 -50 -11 -109 -11 l-98
0 0 -80 c0 -69 -3 -81 -20 -90 -14 -7 -20 -21 -20 -45 0 -47 -9 -65 -36 -76
-19 -7 -24 -16 -24 -44 0 -29 4 -36 26 -41 18 -5 24 -12 22 -28 -3 -19 -11
-22 -101 -27 -54 -4 -100 -9 -103 -11 -2 -3 -7 -367 -10 -809 -3 -442 -7 -809
-9 -816 -2 -6 -19 -13 -37 -15 -33 -3 -33 -4 -36 -59 -2 -41 1 -59 13 -69 8
-7 15 -19 15 -26 0 -24 46 -34 168 -36 l117 -2 -160 -7 c-88 -3 -180 -11 -205
-17 -49 -12 -188 -16 -214 -6 -14 5 -16 27 -16 143 0 151 4 161 58 161 29 0
33 3 30 23 -3 20 -8 22 -71 22 -48 0 -70 -4 -76 -14 -8 -12 -12 -12 -26 2 -14
14 -42 17 -178 19 -89 0 -172 0 -184 -1 -13 -1 -23 2 -23 7 0 16 99 22 372 22
146 0 273 3 282 6 25 10 20 53 -7 59 -12 3 -150 5 -307 3 -279 -3 -285 -3
-285 17 0 20 8 20 314 23 212 1 319 6 328 13 51 43 -37 55 -377 51 -223 -3
-268 -1 -285 11 -19 15 -19 16 -2 35 12 13 15 22 8 27 -18 10 -13 82 5 89 25
10 105 7 138 -5 22 -8 65 -9 141 -3 l110 9 0 30 c0 30 -1 30 -59 33 -40 2 -63
-1 -75 -11 -11 -10 -29 -13 -61 -8 -40 5 -45 9 -48 35 -4 36 10 46 70 46 l47
0 3 38 3 37 90 5 90 5 5 40 c4 31 10 41 27 43 24 4 37 39 27 76 -4 17 1 31 15
45 25 25 26 34 6 51 -22 18 -18 44 8 55 18 8 22 18 22 55 l0 45 -533 3 -533 2
3 27 3 26 190 -1 c105 -1 324 -5 488 -8 l297 -7 0 27 0 26 -234 0 c-129 0
-241 3 -250 6 -9 3 -16 17 -16 30 l0 24 173 2 172 3 0 25 0 25 -317 3 -317 2
-3 48 -3 47 -115 0 -115 0 0 -40 0 -40 47 -3 47 -3 3 -42 c3 -40 4 -42 33 -39
48 5 97 -7 93 -24 -2 -12 -21 -16 -76 -19 -104 -4 -126 3 -132 46 -5 31 -8 34
-41 37 -44 4 -62 -15 -57 -60 3 -29 8 -35 45 -46 62 -20 72 -79 12 -70 -17 2
-24 10 -24 25 0 29 -19 35 -23 8 -6 -30 -17 -38 -64 -44 l-43 -6 -3 -79 c-2
-47 1 -83 8 -90 11 -11 549 -31 747 -27 128 3 153 -2 153 -30 0 -23 29 -21
-376 -23 -250 -1 -304 -4 -319 -16 -17 -14 -16 -15 6 -20 31 -7 38 -40 11 -47
-11 -3 -22 -13 -25 -22 -4 -15 -22 -19 -133 -24 -71 -3 -136 -8 -145 -12 -10
-4 -20 -26 -25 -58 -9 -49 -11 -52 -43 -57 -41 -6 -49 -22 -24 -47 11 -11 19
-35 20 -61 l2 -42 -284 0 c-257 0 -285 -2 -294 -17 -5 -11 -5 -26 0 -42 18
-45 5 -54 -60 -47 -65 7 -85 -4 -79 -46 l3 -23 320 -5 c312 -5 320 -6 320 -25
0 -20 -7 -20 -352 -20 -193 0 -355 3 -359 7 -4 4 3 15 15 25 15 13 18 22 11
33 -7 12 -13 13 -29 3 -10 -6 -27 -10 -37 -7 -11 2 -26 0 -34 -5 -13 -9 -13
-14 3 -40 9 -16 17 -32 17 -35 0 -3 -25 -6 -56 -6 l-56 0 4 -30 c4 -41 -14
-50 -85 -43 -50 5 -62 3 -87 -16 -35 -25 -72 -27 -105 -5 -22 14 -71 16 -432
13 -403 -4 -408 -4 -408 16 0 14 8 21 28 23 31 4 33 17 17 142 -7 49 -7 77 0
84 6 6 10 23 10 38 0 28 0 28 70 28 68 0 70 1 86 31 11 23 13 34 5 42 -6 6
-11 21 -11 33 0 17 7 23 28 26 26 3 27 5 27 68 l0 65 -45 5 -45 5 -3 48 -3 47
-90 0 -89 0 0 44 c0 23 -5 57 -11 75 l-11 31 -99 0 c-88 0 -99 -2 -109 -20
-19 -36 -46 -25 -56 23 l-9 42 -60 0 -60 0 -3 -35 c-2 -19 -10 -40 -18 -47
-10 -7 -14 -24 -12 -50 3 -36 5 -38 41 -41 46 -4 53 -32 8 -32 -32 0 -49 -16
-34 -31 13 -13 155 -20 208 -10 31 5 40 11 40 26 0 17 -9 21 -60 25 -52 4 -60
8 -60 25 0 25 42 30 163 20 69 -6 83 -10 80 -23 -2 -11 -14 -16 -38 -16 -28
-1 -35 -5 -35 -21 0 -18 8 -20 97 -23 85 -2 99 -5 108 -22 7 -13 21 -20 40
-20 28 0 30 -3 30 -35 0 -29 -4 -35 -22 -36 -13 -1 -36 -2 -53 -4 -16 -1 -142
-5 -280 -9 -187 -6 -253 -11 -264 -21 -27 -27 -1 -37 98 -36 53 0 132 -2 177
-5 65 -4 83 -2 93 10 18 22 38 20 52 -5 10 -19 16 -20 64 -14 54 6 125 -2 125
-14 0 -8 -464 -31 -643 -33 -60 0 -113 4 -118 9 -14 14 0 113 15 113 7 0 17
-5 22 -10 6 -6 25 -7 42 -4 43 9 64 53 60 125 l-3 54 -62 3 c-70 3 -70 3 -75
-83 l-3 -40 -72 -3 c-62 -2 -73 -6 -78 -23 -11 -35 4 -86 35 -119 32 -34 40
-84 16 -93 -17 -7 -27 -58 -14 -74 6 -7 31 -13 55 -13 36 0 46 -4 50 -20 3
-11 13 -20 23 -20 10 0 25 -7 34 -15 13 -13 13 -19 0 -43 -16 -31 -18 -70 -4
-106 8 -23 13 -25 57 -20 59 7 96 -13 74 -40 -12 -14 -49 -16 -305 -15 -160 0
-325 3 -366 7 -41 4 -148 6 -238 4 l-162 -3 0 -84 c0 -61 4 -85 13 -85 6 -1
92 0 190 0 147 1 177 -2 177 -14 0 -23 -23 -26 -206 -26 l-174 0 0 -130 0
-130 114 0 113 0 7 -46 c3 -26 6 -53 6 -60 0 -11 -25 -14 -120 -14 l-120 0 1
-125 0 -125 149 0 c149 0 150 0 166 25 l17 26 17 -28 c10 -15 15 -32 13 -36
-3 -5 -84 -7 -182 -6 l-176 2 -3 -291 -2 -292 5125 0 5125 0 0 248 c1 136 3
413 6 615 l6 368 -259 -1 c-530 -2 -513 -3 -513 20 0 20 7 20 385 20 l385 0 0
30 c0 17 -5 30 -12 31 -7 1 -42 2 -78 2 -58 2 -65 4 -65 22 0 18 7 20 65 22
36 1 71 2 78 2 6 1 12 12 12 26 0 19 -5 25 -22 25 -13 0 -34 3 -46 7 -20 5
-23 11 -19 33 3 15 1 32 -6 39 -12 12 -521 17 -551 5 -9 -3 -16 -12 -16 -20 0
-11 40 -14 212 -16 188 -3 213 -5 216 -19 3 -15 -32 -17 -360 -24 -508 -9
-743 -5 -743 15 0 13 28 15 178 18 142 2 177 5 177 16 0 11 -26 15 -114 17
-63 2 -117 7 -120 9 -3 3 -3 16 1 28 5 21 11 22 95 22 137 0 228 38 169 70
-11 5 -68 10 -126 10 -93 0 -106 2 -103 16 2 14 21 17 106 20 57 2 107 6 113
9 16 10 10 44 -10 55 -11 5 -83 10 -160 10 l-141 0 0 25 0 25 104 0 c108 0
133 9 120 44 -7 17 -20 18 -269 20 -115 1 -130 3 -133 19 -3 16 13 17 221 17
225 0 225 0 231 23 8 29 8 71 0 91 -5 12 -21 16 -69 16 -59 0 -65 2 -84 29
-25 35 -16 41 65 41 51 0 54 1 54 25 l0 25 -119 0 c-91 0 -121 3 -131 14 -8
11 -18 12 -36 5 -14 -5 -63 -9 -110 -9 -78 0 -84 1 -84 21 0 20 4 20 97 18 87
-3 98 -1 101 14 7 35 -17 47 -94 47 -44 0 -76 5 -80 11 -9 15 -170 5 -190 -12
-8 -6 -14 -28 -14 -49 0 -24 -5 -40 -14 -43 -8 -3 -16 -16 -18 -29 -2 -19 -10
-23 -46 -26 -37 -3 -43 0 -52 23 -9 24 -14 26 -62 23 l-53 -3 0 -45 c-1 -55
-9 -70 -41 -70 l-25 0 3 -117 3 -118 32 -3 c38 -4 46 -23 41 -93 -2 -37 -7
-45 -25 -47 -17 -3 -26 3 -33 23 -9 24 -13 26 -67 23 l-58 -3 0 -55 0 -55 98
-5 c53 -3 97 -8 97 -12 0 -5 0 -15 0 -23 0 -13 -16 -15 -102 -13 -99 3 -103 4
-106 26 -3 19 -9 23 -35 20 -27 -3 -33 -7 -35 -33 -4 -34 -16 -45 -50 -45 -15
0 -21 -4 -16 -11 4 -8 26 -10 62 -6 55 6 112 -11 112 -33 0 -14 -57 -22 -135
-18 l-69 3 -8 39 c-5 21 -7 313 -6 650 l3 611 33 3 c30 3 32 6 32 42 0 47 -7
50 -110 50 -62 0 -79 3 -84 16 -9 24 -7 62 4 66 6 2 11 95 12 233 l3 230 -35
3 c-73 5 -80 10 -80 47 0 31 -3 35 -25 35 -18 0 -28 -7 -35 -25z m94 -163 c-2
-158 -5 -193 -14 -187 -16 10 -13 228 3 223 6 -3 12 -19 11 -36z m-1431 -48
c3 -3 4 -11 1 -17 -3 -9 -77 -12 -270 -10 -146 1 -269 4 -272 8 -19 19 48 25
279 25 141 0 258 -3 262 -6z m458 -104 c60 0 79 -3 79 -14 0 -10 -32 -15 -136
-20 -141 -7 -163 -3 -150 30 5 14 15 16 68 10 33 -3 96 -6 139 -6z m-764 -16
c3 -9 0 -20 -8 -25 -8 -5 -119 -9 -246 -9 -219 0 -233 1 -233 18 0 10 3 22 7
25 3 4 111 7 240 7 205 0 234 -2 240 -16z m1293 6 c0 -5 -23 -10 -51 -10 -31
0 -48 4 -44 10 3 6 26 10 51 10 24 0 44 -4 44 -10z m-1510 -130 c0 -6 -48 -10
-124 -10 -73 0 -127 4 -131 10 -4 6 40 10 124 10 81 0 131 -4 131 -10z m-16
-66 c26 -10 20 -53 -9 -60 -36 -9 -55 2 -55 30 0 31 28 44 64 30z m1281 -25
c0 -39 -38 -42 -602 -47 l-543 -5 0 22 0 21 555 0 c491 0 556 2 562 15 7 19
28 14 28 -6z m399 -15 c9 -3 16 -17 16 -30 0 -22 -4 -24 -45 -24 -39 0 -45 3
-45 21 0 14 5 19 14 16 8 -3 20 1 26 9 14 16 13 16 34 8z m-1934 -25 c0 -5 -4
-9 -10 -9 -5 0 -10 7 -10 16 0 8 5 12 10 9 6 -3 10 -10 10 -16z m1677 -33 c-7
-19 -38 -21 -55 -4 -18 18 -15 28 11 37 26 11 53 -9 44 -33z m564 -286 c-3
-427 -13 -1055 -17 -1059 -2 -2 -4 99 -4 225 0 126 -3 408 -6 626 -4 218 -4
404 0 413 3 9 11 15 17 13 9 -3 12 -65 10 -218z m-2424 68 c-2 -24 -4 -7 -4
37 0 44 2 63 4 43 2 -21 2 -57 0 -80z m874 76 c10 -9 15 -22 12 -30 -3 -10 2
-14 18 -14 66 -1 337 -9 517 -16 l203 -7 -3 -105 -3 -105 -255 -2 c-140 -1
-257 -3 -259 -3 -3 -1 0 -7 7 -14 7 -7 12 -20 12 -30 0 -16 -10 -18 -84 -18
-87 0 -102 7 -85 42 6 11 4 18 -6 21 -7 3 -145 9 -304 13 l-291 7 0 104 0 103
78 2 c42 1 119 0 171 -1 100 -3 111 1 111 47 0 21 4 22 72 22 51 0 76 -4 89
-16z m-2121 -34 c0 -5 -11 -10 -25 -10 -14 0 -25 5 -25 10 0 6 11 10 25 10 14
0 25 -4 25 -10z m287 -66 c9 -25 -16 -34 -99 -34 -77 0 -95 8 -84 35 8 23 174
21 183 -1z m3283 -89 l0 -95 -322 2 -323 3 -3 30 c-2 16 -1 58 3 92 l7 63 319
0 319 0 0 -95z m-2822 -105 c-3 -12 -28 -15 -143 -18 -77 -1 -152 -7 -167 -13
-18 -8 -32 -8 -46 0 -12 6 -34 11 -51 11 -17 0 -31 5 -31 10 0 6 12 10 28 10
15 0 34 5 42 10 9 6 87 9 193 8 152 -3 177 -5 175 -18z m-565 -20 c5 -4 6 -17
2 -29 -6 -21 -11 -21 -240 -21 -191 0 -234 3 -238 14 -3 8 0 21 6 30 9 12 36
16 122 18 154 4 338 -2 348 -12z m2695 -2 c3 -16 -5 -18 -62 -18 -43 0 -66 4
-66 12 0 6 -8 4 -19 -6 -16 -15 -33 -17 -98 -12 -43 2 -95 5 -115 5 -37 0 -64
20 -31 22 10 1 30 2 45 3 15 1 31 5 35 9 4 4 75 6 157 5 134 -3 151 -5 154
-20z m-954 -17 c10 -15 -46 -20 -257 -21 -126 0 -208 4 -212 10 -4 6 66 11
197 13 112 1 217 3 235 5 17 1 34 -2 37 -7z m-1494 -51 c0 -5 -7 -10 -15 -10
-8 0 -15 5 -15 10 0 6 7 10 15 10 8 0 15 -4 15 -10z m378 -11 c2 -14 -12 -17
-100 -21 -73 -4 -115 -2 -143 8 -22 8 -51 14 -65 15 -23 0 -23 1 -5 9 11 5 85
8 165 7 124 -2 145 -4 148 -18z m551 -136 c-1 -96 -3 -118 -10 -88 -13 64 -8
215 7 215 2 0 3 -57 3 -127z m716 77 c0 -13 -43 -15 -312 -18 -266 -2 -313 0
-313 12 0 8 6 17 13 19 6 3 147 5 312 4 259 -2 300 -4 300 -17z m435 13 l55
-7 -45 -7 c-25 -4 -116 -8 -202 -8 -134 -1 -158 1 -158 14 0 13 23 15 148 15
81 0 172 -3 202 -7z m638 -10 c-10 -2 -26 -2 -35 0 -10 3 -2 5 17 5 19 0 27
-2 18 -5z m1427 -55 c14 -6 25 -14 25 -18 0 -4 3 -21 6 -38 5 -26 2 -31 -27
-46 -17 -9 -45 -16 -61 -16 -26 0 -28 2 -28 43 0 23 -3 52 -6 65 -6 20 -3 22
29 22 20 0 48 -5 62 -12z m-1319 -44 c15 -4 24 -13 24 -25 0 -18 -12 -19 -289
-19 -293 0 -329 5 -287 35 12 9 87 13 272 14 141 1 266 -2 280 -5z m-1061 -13
c70 -13 -101 -21 -442 -21 -272 0 -313 2 -313 15 0 13 46 15 358 14 196 0 375
-3 397 -8z m-1850 -11 c-7 -12 -79 -12 -115 0 -18 6 -4 8 48 9 47 1 71 -3 67
-9z m3225 -10 c0 -21 -8 -23 -105 -21 -72 2 -105 11 -105 27 0 11 21 14 105
14 98 0 105 -1 105 -20z m187 -62 c-2 -18 -4 -6 -4 27 0 33 2 48 4 33 2 -15 2
-42 0 -60z m1166 57 c32 -5 38 -10 35 -28 -3 -21 -7 -22 -149 -25 -149 -3
-199 6 -199 33 0 19 25 24 130 28 90 3 122 2 183 -8z m-8043 -27 c0 -7 -5 -20
-10 -28 -9 -13 -12 -12 -25 4 -21 28 -19 36 10 36 14 0 25 -6 25 -12z m4367
-10 c-3 -8 -6 -5 -6 6 -1 11 2 17 5 13 3 -3 4 -12 1 -19z m1323 -50 c0 -66
-11 -110 -24 -98 -4 4 -9 120 -7 158 1 6 8 12 16 12 12 0 15 -15 15 -72z m958
20 c3 -27 2 -28 -48 -28 -52 0 -69 13 -56 46 4 11 18 14 53 12 44 -3 48 -5 51
-30z m-3161 -40 c-3 -8 -6 -5 -6 6 -1 11 2 17 5 13 3 -3 4 -12 1 -19z m880
-20 c-3 -7 -5 -2 -5 12 0 14 2 19 5 13 2 -7 2 -19 0 -25z m568 22 c12 -5 -56
-9 -172 -9 -123 -1 -193 3 -193 9 0 12 336 12 365 0z m2825 2 c63 -1 122 0
130 0 8 1 62 0 120 -2 86 -2 98 -4 65 -11 -22 -4 -61 -8 -87 -8 -26 -1 -50 -6
-53 -12 -5 -6 -51 -8 -138 -4 -160 7 -214 -5 -209 -50 4 -30 -13 -55 -38 -55
-19 0 -30 19 -30 51 0 14 -7 19 -30 19 -31 0 -50 22 -50 60 0 21 3 21 103 17
56 -3 154 -5 217 -5z m-4892 -14 c6 -6 12 -19 12 -29 0 -16 8 -19 48 -20 101
-1 126 -7 155 -39 15 -17 27 -34 27 -39 0 -23 -192 -22 -206 0 -3 5 -29 9 -59
9 -59 0 -66 6 -75 59 -5 35 -6 35 -52 32 -44 -2 -73 13 -50 28 17 10 186 10
200 -1z m3155 5 c-18 -2 -48 -2 -65 0 -18 2 -4 4 32 4 36 0 50 -2 33 -4z
m2144 1 c-3 -3 -12 -4 -19 -1 -8 3 -5 6 6 6 11 1 17 -2 13 -5z m-4597 -59 c0
-36 -13 -47 -24 -19 -11 28 -6 54 9 54 10 0 15 -11 15 -35z m797 -92 c-2 -16
-4 -5 -4 22 0 28 2 40 4 28 2 -13 2 -35 0 -50z m3071 50 c-4 -23 -58 -31 -58
-9 0 13 16 22 48 25 8 0 12 -7 10 -16z m-1590 -180 c-3 -151 -5 -168 -20 -171
-17 -3 -18 10 -18 167 0 165 1 171 20 171 20 0 20 -5 18 -167z m-91 37 c3 -67
1 -100 -6 -100 -7 0 -11 37 -11 107 0 58 3 103 7 100 3 -4 8 -52 10 -107z
m-100 -22 c-2 -24 -4 -7 -4 37 0 44 2 63 4 43 2 -21 2 -57 0 -80z m-5222 84
c0 -18 -20 -15 -23 4 -3 10 1 15 10 12 7 -3 13 -10 13 -16z m2753 -14 c7 -7
12 -27 12 -45 0 -35 20 -52 62 -54 21 0 22 -1 3 -8 -11 -5 -275 -11 -587 -15
l-568 -6 0 25 0 25 293 0 c162 0 299 -4 307 -10 9 -5 19 -5 28 2 8 7 79 10
212 9 l200 -2 0 30 c0 16 -4 33 -10 36 -5 3 -10 10 -10 16 0 13 44 11 58 -3z
m4450 2 c17 0 32 -4 32 -10 0 -6 -42 -10 -105 -10 -58 0 -105 4 -105 8 0 20
19 24 80 18 36 -3 80 -6 98 -6z m-7583 -30 c-6 -9 -9 -9 -16 1 -10 17 0 34 13
21 6 -6 7 -16 3 -22z m7885 20 c0 -12 -54 -12 -90 0 -19 6 -11 8 33 9 32 1 57
-3 57 -9z m-280 -110 c12 -7 -85 -20 -151 -20 -37 0 -55 10 -42 24 9 8 179 5
193 -4z m-7268 -20 c29 -27 11 -32 -72 -21 -55 7 -58 9 -23 10 23 0 48 8 55
16 17 18 15 18 40 -5z m-165 -14 c4 -3 -34 -6 -83 -5 -56 1 -80 4 -64 8 28 9
138 6 147 -3z m4723 -27 c-28 -5 -48 -5 -54 1 -7 7 9 10 45 9 l54 -1 -45 -9z
m247 5 c-3 -3 -12 -4 -19 -1 -8 3 -5 6 6 6 11 1 17 -2 13 -5z m-2232 -39 c0
-19 -8 -20 -194 -23 -114 -1 -199 2 -204 7 -5 5 -7 17 -4 26 6 13 31 15 204
13 190 -3 198 -4 198 -23z m354 11 c8 -9 8 -21 1 -40 -5 -14 -12 -26 -14 -26
-12 0 -27 42 -21 60 7 23 18 25 34 6z m-114 -6 c5 -8 -155 -21 -168 -13 -4 2
-5 9 -2 14 7 11 163 10 170 -1z m235 1 c0 -14 -18 -23 -30 -16 -6 4 -8 11 -5
16 8 12 35 12 35 0z m3203 -6 c-2 -6 -74 -11 -183 -13 -157 -2 -180 0 -180 13
0 13 23 15 183 13 115 -2 181 -7 180 -13z m-2276 -162 c-2 -32 -3 -6 -3 57 0
63 1 89 3 58 2 -32 2 -84 0 -115z m3318 148 c10 -17 -16 -23 -105 -24 -90 -1
-107 3 -95 22 8 14 191 15 200 2z m-2441 -7 c24 -9 9 -24 -25 -24 -27 0 -29
-3 -29 -35 l0 -35 50 0 c38 0 50 -4 50 -15 0 -16 -7 -18 -57 -15 -23 1 -35 -4
-43 -19 -8 -16 -20 -21 -55 -21 -40 0 -45 3 -45 23 0 31 -11 44 -39 48 -23 4
-34 16 -45 52 -4 13 -16 17 -51 17 -25 0 -45 4 -45 10 0 5 59 11 143 13 78 1
150 4 159 5 9 1 23 -1 32 -4z m2224 -6 c-6 -18 -28 -21 -28 -4 0 9 7 16 16 16
9 0 14 -5 12 -12z m-2861 -105 c-2 -16 -4 -3 -4 27 0 30 2 43 4 28 2 -16 2
-40 0 -55z m-2558 38 c8 -5 11 -16 8 -25 -9 -22 -198 -24 -216 -2 -10 11 -8
17 6 25 22 13 182 14 202 2z m276 -16 c0 -19 -8 -20 -107 -23 -101 -3 -108 -1
-108 17 0 27 12 30 120 28 88 -2 95 -4 95 -22z m270 15 c4 -6 1 -18 -6 -26 -9
-11 -32 -14 -103 -12 -86 3 -91 4 -94 26 -3 22 -1 22 97 22 58 0 102 -4 106
-10z m617 -8 c7 -7 0 -12 -19 -16 -24 -4 -486 -11 -520 -7 -7 0 -13 11 -13 23
l0 21 271 -6 c156 -3 276 -10 281 -15z m3428 -2 c0 -19 -7 -20 -179 -20 -173
0 -202 5 -186 30 4 6 77 10 186 10 172 0 179 -1 179 -20z m693 -7 c-7 -2 -21
-2 -30 0 -10 3 -4 5 12 5 17 0 24 -2 18 -5z m-7036 -19 c-3 -3 -12 -4 -19 -1
-8 3 -5 6 6 6 11 1 17 -2 13 -5z m4721 -6 c-3 -7 -12 -13 -21 -12 -9 0 -40 1
-68 2 -74 3 -51 22 27 22 48 0 65 -3 62 -12z m2550 -15 c-2 -12 -14 -19 -36
-21 -27 -3 -32 0 -32 17 0 17 6 21 36 21 28 0 35 -3 32 -17z m162 8 l55 -7
-87 -8 c-86 -8 -114 -4 -103 15 7 10 54 10 135 0z m-953 -53 c-3 -7 -5 -2 -5
12 0 14 2 19 5 13 2 -7 2 -19 0 -25z m-5349 13 c9 -5 25 -12 35 -15 27 -8 20
-23 -14 -30 -17 -3 -112 -6 -211 -6 -150 0 -180 2 -184 15 -4 8 -1 22 6 30 10
12 44 15 181 15 93 0 177 -4 187 -9z m-1413 -30 c0 -25 -48 -29 -354 -30 -298
-1 -300 -1 -306 20 -4 12 -3 24 3 28 5 3 156 4 334 1 271 -4 323 -7 323 -19z
m985 4 l0 -25 -234 0 c-236 0 -255 3 -242 35 4 13 44 15 241 15 l235 0 0 -25z
m1045 4 c5 -5 -61 -9 -158 -9 -95 0 -167 4 -167 9 0 5 6 11 13 14 21 8 302 -5
312 -14z m720 12 c11 -18 -26 -41 -66 -41 -42 0 -64 24 -38 41 19 12 96 12
104 0z m586 -8 c31 -7 27 -9 -36 -15 -38 -4 -170 -11 -292 -14 -202 -6 -223
-5 -223 10 0 11 9 16 29 16 17 0 33 5 37 12 8 12 421 5 485 -9z m4147 -10 l3
-23 -160 0 c-152 0 -161 1 -161 19 0 27 15 29 175 27 137 -1 140 -1 143 -23z
m-8190 -5 c-3 -22 -7 -23 -137 -26 -135 -3 -159 3 -148 32 5 14 29 16 147 16
141 0 141 0 138 -22z m3272 4 c0 -10 -35 -12 -152 -11 -171 1 -215 11 -93 20
134 10 245 6 245 -9z m963 11 c-7 -2 -19 -2 -25 0 -7 3 -2 5 12 5 14 0 19 -2
13 -5z m217 -3 c0 -6 -39 -10 -100 -10 -55 0 -100 4 -100 9 0 5 45 10 100 10
62 1 100 -2 100 -9z m3350 -9 c0 -16 -10 -21 -55 -26 -60 -8 -170 -3 -181 8
-4 3 -4 13 -1 22 5 12 27 15 122 15 107 0 115 -1 115 -19z m1926 8 c3 -6 2
-14 -2 -19 -5 -4 -258 -10 -561 -13 -524 -5 -553 -5 -553 12 0 10 3 21 7 24
12 12 1101 8 1109 -4z m-6853 -6 c-13 -2 -35 -2 -50 0 -16 2 -5 4 22 4 28 0
40 -2 28 -4z m-1110 -89 c615 -11 415 -38 -314 -43 -171 -1 -208 1 -212 13 -3
8 0 19 6 25 13 10 85 18 127 14 14 -1 191 -5 393 -9z m2062 -20 c0 -22 43 -21
-811 -16 -359 1 -455 5 -451 15 3 10 188 15 367 9 93 -4 863 8 868 12 11 11
27 0 27 -20z m712 13 c3 -5 1 -12 -5 -16 -12 -7 -322 -4 -329 3 -3 3 -2 10 2
16 9 14 323 11 332 -3z m-2037 -12 c0 -16 -10 -18 -150 -21 -104 -2 -140 3
-140 22 0 11 26 14 145 14 122 0 145 -2 145 -15z m5444 7 c15 -25 -18 -30
-194 -33 -185 -3 -185 -3 -188 19 l-3 22 190 0 c104 0 192 -4 195 -8z m216
-12 c0 -18 -7 -20 -80 -20 -73 0 -80 2 -80 20 0 18 7 20 80 20 73 0 80 -2 80
-20z m-7452 -12 c-3 -22 -7 -23 -83 -22 -44 0 -164 4 -267 9 -147 6 -188 11
-188 22 0 10 51 13 271 13 l270 0 -3 -22z m6216 13 c-13 -14 -969 -23 -1459
-15 -231 5 -406 11 -390 15 47 11 1861 10 1849 0z m2176 -1 c0 -6 -85 -10
-235 -10 -129 0 -238 0 -242 -1 -4 0 -9 4 -11 10 -3 8 71 11 242 11 157 0 246
-4 246 -10z m-7552 -102 c-3 -22 -7 -23 -107 -24 -102 -1 -104 -1 -118 -28 -8
-14 -11 -31 -8 -36 3 -6 52 -10 108 -10 119 0 207 -9 207 -21 0 -11 -700 -10
-785 1 -45 5 -13 8 125 10 102 1 214 5 250 9 65 6 65 6 68 39 3 27 -1 35 -17
39 -12 3 -21 11 -21 19 0 10 24 14 98 17 53 1 121 4 150 5 50 2 53 1 50 -20z
m7931 16 c22 -5 31 -12 29 -23 -4 -18 -41 -28 -111 -30 -49 -1 -66 12 -53 44
6 16 76 21 135 9z m-6969 -19 c0 -13 -21 -15 -129 -15 -118 0 -152 6 -134 24
3 3 64 6 135 6 107 0 128 -2 128 -15z m458 6 c13 -1 20 -5 17 -11 -8 -13 -325
-14 -325 -1 0 16 117 20 308 12z m757 -1 c25 -11 56 -9 -332 -17 -183 -3 -340
-2 -350 3 -12 6 12 10 77 14 149 9 583 9 605 0z m4370 -10 c0 -12 -16 -15 -85
-15 -73 0 -85 2 -88 18 -3 16 4 18 85 15 70 -2 88 -6 88 -18z m-8137 1 c23
-14 -12 -21 -103 -21 -77 0 -114 11 -83 23 22 9 172 7 186 -2z m7410 -3 c-4
-12 -733 -19 -913 -8 -49 3 124 7 385 10 261 3 488 6 503 8 18 1 27 -2 25 -10z
m82 2 c0 -5 -11 -10 -25 -10 -14 0 -25 5 -25 10 0 6 11 10 25 10 14 0 25 -4
25 -10z m367 4 c97 -12 43 -24 -108 -24 -88 0 -149 4 -149 10 0 5 35 11 78 13
42 1 88 4 102 5 14 1 49 -1 77 -4z m-3922 -15 c-18 -5 -33 -5 -39 1 -7 7 4 10
30 9 39 -1 39 -1 9 -10z m2233 4 c-16 -2 -40 -2 -55 0 -16 2 -3 4 27 4 30 0
43 -2 28 -4z m95 0 c-7 -2 -19 -2 -25 0 -7 3 -2 5 12 5 14 0 19 -2 13 -5z
m2032 -4 c-55 -11 -85 -11 -85 1 0 6 27 10 63 9 59 -1 60 -2 22 -10z m-2829
-54 c5 -12 99 -14 698 -15 380 0 788 -3 906 -6 126 -4 278 -1 366 5 83 6 159
9 168 5 10 -4 16 -15 14 -28 -2 -16 -11 -22 -41 -24 -21 -2 -45 2 -53 9 -12
10 -303 12 -1314 13 -715 1 -1300 4 -1300 9 0 4 107 7 238 7 226 0 240 1 257
20 21 23 53 26 61 5z m-598 -23 c2 -7 -3 -12 -12 -12 -9 0 -16 7 -16 16 0 17
22 14 28 -4z m-4118 -22 c0 -25 -4 -30 -24 -30 -38 0 -43 -20 -12 -45 24 -19
27 -28 24 -66 l-3 -44 45 -5 c37 -4 45 -9 45 -25 0 -19 -6 -20 -114 -17 -63 1
-115 3 -116 5 -1 1 2 40 6 87 4 47 5 87 3 89 -2 3 -23 7 -47 10 -39 6 -42 9
-45 39 l-3 32 120 0 121 0 0 -30z m7480 10 c0 -19 -9 -19 -271 -22 -202 -2
-273 0 -281 9 -24 29 6 33 278 33 266 0 274 -1 274 -20z m-3530 0 c60 -5 57
-5 -50 -12 -194 -11 -473 -5 -478 10 -3 11 41 13 229 10 129 -1 263 -5 299 -8z
m-1650 -9 c0 -10 -656 -8 -667 2 -3 4 145 7 330 7 192 0 337 -4 337 -9z m6500
-6 c0 -13 -53 -15 -412 -17 -488 -1 -478 -2 -463 21 4 8 144 11 441 11 379 0
434 -2 434 -15z m-4490 -70 c19 -11 72 -14 233 -15 162 0 208 -3 204 -12 -3
-10 -219 -13 -1033 -13 -1066 0 -1158 1 -1149 15 3 5 374 8 832 7 771 -2 828
-1 847 15 25 21 34 21 66 3z m1447 -15 c227 0 263 -2 263 -15 0 -13 -71 -15
-579 -15 -376 0 -582 4 -586 10 -19 31 8 33 323 27 173 -4 434 -7 579 -7z
m2005 -1 c660 0 1150 -4 1153 -9 3 -5 2 -11 -2 -13 -13 -8 -2851 -13 -2858 -5
-4 4 -5 15 -1 24 6 15 30 16 284 10 152 -3 793 -6 1424 -7z m-5322 -14 c0 -13
-114 -15 -967 -15 -533 0 -985 3 -1006 7 -26 4 -34 9 -25 14 7 5 460 9 1006 9
875 0 992 -2 992 -15z m4015 -96 c18 -17 -15 -33 -73 -34 -32 -1 -64 -5 -71
-9 -35 -22 -89 26 -55 51 18 13 182 7 199 -8z m-1037 -17 c2 -14 -2 -22 -12
-22 -19 0 -29 17 -22 36 8 22 30 12 34 -14z m-6152 7 c10 -16 -11 -32 -34 -24
-13 4 -19 12 -15 21 6 16 39 19 49 3z m2372 5 c294 -4 530 -9 525 -13 -4 -3
-449 -4 -988 -1 -539 2 -921 7 -850 10 218 9 752 10 1313 4z m2412 -5 c0 -5
-198 -9 -511 -9 -280 0 -508 4 -505 8 7 12 1016 13 1016 1z m2128 -6 c5 -17
-26 -29 -40 -15 -6 6 -7 15 -3 22 9 14 37 9 43 -7z m2730 2 c3 -3 -435 -5
-974 -5 -538 0 -1066 -3 -1171 -7 -182 -6 -193 -5 -193 12 0 17 45 18 1166 12
642 -3 1169 -9 1172 -12z m-6031 -1 c-3 -3 -12 -4 -19 -1 -8 3 -5 6 6 6 11 1
17 -2 13 -5z m3206 -1 c-7 -2 -21 -2 -30 0 -10 3 -4 5 12 5 17 0 24 -2 18 -5z
m-163 -94 c0 -7 19 -10 48 -9 88 4 152 0 152 -10 0 -12 -733 -12 -784 0 -17 5
91 8 239 9 259 1 271 2 288 21 14 17 21 18 37 10 11 -6 20 -15 20 -21z m1010
-18 c73 -15 -451 -30 -570 -16 -14 2 -49 4 -77 4 -29 1 -53 5 -53 11 0 18 612
20 700 1z m-6642 2 c95 -3 171 -8 169 -10 -2 -2 -100 -5 -218 -8 -223 -6 -397
3 -329 16 49 9 177 10 378 2z m1827 -2 c22 -7 -19 -10 -143 -10 -95 -1 -171 2
-168 7 7 11 276 14 311 3z m1540 -1 c17 -4 -91 -7 -240 -7 -148 0 -250 3 -225
7 61 10 428 10 465 0z m-4223 -7 c-78 -2 -206 -2 -285 0 -78 1 -14 3 143 3
157 0 221 -2 142 -3z m2321 0 c-13 -2 -33 -2 -45 0 -13 2 -3 4 22 4 25 0 35
-2 23 -4z m870 0 c-13 -2 -35 -2 -50 0 -16 2 -5 4 22 4 28 0 40 -2 28 -4z m70
0 c-7 -2 -19 -2 -25 0 -7 3 -2 5 12 5 14 0 19 -2 13 -5z m142 1 c-15 -6 -11
-84 6 -95 11 -7 -730 -15 -971 -11 -14 0 -117 0 -229 1 -112 1 -201 4 -198 7
4 4 306 6 672 6 l666 -2 8 23 c25 66 25 66 -21 70 -34 3 -31 4 17 4 33 1 56 0
50 -3z m4172 0 c-3 -3 -12 -4 -19 -1 -8 3 -5 6 6 6 11 1 17 -2 13 -5z m50 0
c-3 -3 -12 -4 -19 -1 -8 3 -5 6 6 6 11 1 17 -2 13 -5z m-6667 -69 c0 -9 10
-20 23 -25 22 -9 22 -9 -3 -9 -14 -1 -115 -4 -225 -8 -110 -3 -240 -2 -290 3
l-90 8 95 8 c52 4 175 7 274 6 157 -1 180 1 188 15 11 21 28 22 28 2z m6708
-27 l167 -1 -160 -8 c-207 -9 -1668 -9 -1805 1 l-105 7 125 1 c69 1 447 5 840
8 577 6 717 10 723 20 6 11 12 9 27 -6 18 -18 36 -20 188 -22z m-5948 0 c0 -5
-11 -8 -25 -8 -24 0 -24 1 -7 18 16 17 31 12 32 -10z m2589 3 c74 -1 132 -3
130 -5 -6 -6 -512 -10 -704 -6 l-170 4 145 6 c80 3 217 4 305 3 88 -1 220 -2
294 -2z m-4346 -8 c-7 -2 -19 -2 -25 0 -7 3 -2 5 12 5 14 0 19 -2 13 -5z m230
0 c-7 -2 -21 -2 -30 0 -10 3 -4 5 12 5 17 0 24 -2 18 -5z m1440 0 c-7 -2 -21
-2 -30 0 -10 3 -4 5 12 5 17 0 24 -2 18 -5z m1840 0 c-7 -2 -19 -2 -25 0 -7 3
-2 5 12 5 14 0 19 -2 13 -5z m1040 0 c-7 -2 -19 -2 -25 0 -7 3 -2 5 12 5 14 0
19 -2 13 -5z m1114 1 c-3 -3 -12 -4 -19 -1 -8 3 -5 6 6 6 11 1 17 -2 13 -5z
m-5009 -121 c-15 -2 -42 -2 -60 0 -18 2 -6 4 27 4 33 0 48 -2 33 -4z m2147 -4
c-148 -11 -687 -10 -680 2 4 5 160 8 393 7 267 -1 356 -3 287 -9z m4900 1
c-31 -12 -1202 -13 -1210 0 -4 7 188 10 612 9 340 0 609 -4 598 -9z m-8002
-127 c-7 -2 -19 -2 -25 0 -7 3 -2 5 12 5 14 0 19 -2 13 -5z m150 0 c-7 -2 -21
-2 -30 0 -10 3 -4 5 12 5 17 0 24 -2 18 -5z m855 0 c-21 -2 -57 -2 -80 0 -24
2 -7 4 37 4 44 0 63 -2 43 -4z m180 0 c-21 -2 -55 -2 -75 0 -21 2 -4 4 37 4
41 0 58 -2 38 -4z m6405 0 c-90 -2 -236 -2 -325 0 -90 1 -17 3 162 3 179 0
252 -2 163 -3z m-165 -130 c-10 -2 -26 -2 -35 0 -10 3 -2 5 17 5 19 0 27 -2
18 -5z m79 1 c-3 -3 -12 -4 -19 -1 -8 3 -5 6 6 6 11 1 17 -2 13 -5z"/>
<path d="M8633 2153 c9 -2 25 -2 35 0 9 3 1 5 -18 5 -19 0 -27 -2 -17 -5z"/>
<path d="M4214 2874 c-9 -35 5 -46 46 -34 19 6 47 10 62 10 21 0 28 5 28 19 0
24 -19 31 -81 31 -44 0 -49 -2 -55 -26z"/>
<path d="M4384 2885 c-12 -32 7 -35 197 -35 l189 0 0 25 0 25 -190 0 c-157 0
-192 -3 -196 -15z"/>
<path d="M2107 2833 c-7 -6 -10 -41 -4 -45 1 -1 101 -4 222 -7 186 -5 220 -8
220 -21 0 -13 -33 -16 -220 -20 l-220 -5 -3 -250 c-1 -137 0 -260 3 -272 5
-20 12 -23 55 -23 44 0 52 -3 76 -35 17 -22 35 -35 49 -35 17 0 25 -7 27 -22
4 -29 61 -45 97 -26 39 19 71 51 71 70 0 11 10 18 28 20 22 2 28 9 30 33 6 68
10 75 47 75 42 0 47 13 46 118 0 42 2 133 5 202 3 69 3 153 -1 188 l-7 62
-257 0 c-142 0 -261 -3 -264 -7z m180 -659 c-3 -3 -12 -4 -19 -1 -8 3 -5 6 6
6 11 1 17 -2 13 -5z"/>
<path d="M4263 2759 c-6 -6 -9 -18 -6 -25 4 -11 51 -14 250 -14 l244 0 -3 23
-3 22 -235 3 c-166 2 -239 -1 -247 -9z"/>
<path d="M4836 2629 c10 -20 22 -28 42 -28 15 -1 48 -3 75 -7 39 -5 47 -3 47
10 0 12 -10 16 -37 16 -20 0 -45 8 -55 17 -11 10 -35 18 -53 19 l-34 1 15 -28z"/>
<path d="M3106 2054 c-9 -8 -16 -19 -16 -24 0 -16 54 -21 142 -14 74 5 88 9
88 24 0 14 -12 18 -61 24 -97 10 -136 7 -153 -10z"/>
<path d="M1095 2040 c-4 -6 -4 -14 0 -18 4 -4 117 -8 251 -9 210 -1 245 1 242
13 -2 13 -44 16 -244 21 -179 4 -243 2 -249 -7z"/>
<path d="M2837 1825 c-5 -11 -31 -15 -119 -17 -109 -3 -113 -4 -116 -26 l-3
-23 132 3 133 3 2 38 c3 38 -18 53 -29 22z"/>
<path d="M4520 1739 c-7 -11 -9 -24 -5 -27 4 -4 75 -7 158 -7 140 0 152 1 155
19 2 10 -2 22 -10 27 -7 5 -75 9 -150 9 -129 0 -138 -1 -148 -21z"/>
<path d="M1983 1652 l-123 -3 0 -24 0 -25 249 0 c261 0 270 2 249 43 -8 16
-22 17 -131 15 -67 -2 -177 -4 -244 -6z"/>
<path d="M2418 1653 c-11 -3 -18 -14 -18 -29 l0 -24 119 0 c66 0 126 -3 135
-6 12 -5 16 0 16 18 0 42 -17 48 -129 47 -59 -1 -114 -3 -123 -6z"/>
<path d="M303 1623 c-3 -8 -2 -18 3 -23 5 -5 83 -10 174 -11 160 -1 165 0 168
20 2 12 0 21 -5 22 -4 0 -81 2 -171 4 -136 2 -164 0 -169 -12z"/>
<path d="M9722 1631 c-8 -4 -12 -17 -10 -27 3 -18 15 -19 173 -19 l170 0 0 25
0 25 -160 2 c-88 2 -166 -1 -173 -6z"/>
<path d="M0 1546 l0 -64 391 0 c331 0 391 3 396 15 13 34 -12 36 -349 37 -221
0 -335 3 -340 10 -4 6 -8 23 -8 39 0 25 -3 27 -45 27 l-45 0 0 -64z"/>
<path d="M1802 1533 c-34 -3 -43 -8 -40 -21 3 -16 37 -17 388 -22 212 -3 391
-1 397 4 9 6 10 14 2 27 -9 18 -25 19 -357 17 -191 -1 -366 -3 -390 -5z"/>
<path d="M9347 1514 c-4 -4 -7 -16 -7 -26 0 -16 10 -18 106 -18 104 0 105 0
102 23 -3 21 -8 22 -98 25 -53 1 -99 0 -103 -4z"/>
</g>
</svg>
