<svg width="76" height="76" viewBox="0 0 76 76" fill="none" xmlns="http://www.w3.org/2000/svg">
<path d="M53.0425 22.5375C53.0575 22.5375 53.0775 22.5375 53.0975 22.5375C53.62 22.5375 54.105 22.7 54.5025 22.98L54.495 22.975C54.785 23.2275 54.98 23.5825 55.0275 23.9825V23.99C55.0775 24.295 55.105 24.645 55.105 25.0025C55.105 25.165 55.1 25.325 55.0875 25.485V25.4625C54.525 31.385 52.085 45.7475 50.845 52.3775C50.32 55.185 49.2875 56.125 48.2875 56.215C46.115 56.4175 44.465 54.78 42.36 53.4C39.065 51.2375 37.2025 49.8925 34.005 47.785C30.3075 45.3525 32.705 44.01 34.81 41.825C35.3625 41.25 44.94 32.5375 45.1275 31.7475C45.1375 31.7 45.1425 31.6475 45.1425 31.5925C45.1425 31.3975 45.07 31.22 44.9525 31.085C44.8225 31 44.66 30.9525 44.49 30.9525C44.3775 30.9525 44.27 30.975 44.17 31.0125L44.175 31.01C43.845 31.085 38.5817 34.5633 28.385 41.445C27.2725 42.3225 25.8675 42.8775 24.3375 42.9425H24.3225C22.155 42.68 20.1875 42.1975 18.32 41.51L18.505 41.57C16.16 40.805 14.2975 40.4025 14.4575 39.1075C14.5425 38.4342 15.4708 37.745 17.2425 37.04C28.1558 32.285 35.4333 29.1508 39.075 27.6375C43.0925 25.505 47.75 23.75 52.6475 22.6125L53.04 22.535L53.0425 22.5375ZM37.5625 0C16.8075 0.05 0 16.8875 0 37.65C0 58.4425 16.855 75.3 37.65 75.3C58.445 75.3 75.3 58.445 75.3 37.65C75.3 16.8875 58.4925 0.05 37.7425 0H37.7375C37.6792 0 37.6208 0 37.5625 0Z" fill="white"/>
</svg>
